<?xml version="1.0" encoding="utf-8"?><!DOCTYPE svg PUBLIC "-//W3C//DTD SVG 1.1//EN" "http://www.w3.org/Graphics/SVG/1.1/DTD/svg11.dtd"><svg version="1.1" xmlns="http://www.w3.org/2000/svg" xmlns:xlink="http://www.w3.org/1999/xlink" width="32" height="32" viewBox="0 0 32 32" data-tags="zhihu"><g fill="black" transform="scale(0.03125 0.03125)"><path fill="white" d="M244.096 0c-148.053 0-244.096 96-244.096 244.011v535.936c0 148.096 96.085 244.053 244.096 244.053h535.893c148.053 0 244.011-96 244.011-244.011v-535.936c0-148.096-96-244.053-244.011-244.053zM327.893 173.995c-11.563 31.147-21.333 61.184-29.013 90.027h195.712c23.253-0.256 18.987 49.835 18.987 49.963h-113.195c0.008 2.359 0.013 5.153 0.013 7.947 0 54.201-1.739 107.996-5.165 161.331l0.374-7.273h115.712c16.555 0.981 16.768 53.376 16.768 54.016h-136.277c-2.543 32.917-8.726 63.435-18.193 92.469l0.785-2.784 32.299-25.771c19.285 19.456 64.512 73.045 81.323 92.885 20.181 29.056 2.688 88.789 2.688 88.789l-119.211-144.299c-27.861 107.435-78.72 153.899-78.72 153.899-22.315 19.968-67.413 34.987-112.64 22.016 94.635-73.813 146.773-167.125 156.459-277.205h-144.981c0-0.64 8.405-53.035 34.389-54.016h115.627c1.024-13.653 3.669-138.837 3.669-162.005h-63.787c-5.803 17.323-6.741 19.072-11.435 32.128-25.344 46.72-68.395 47.872-81.365 49.28 38.656-77.696 60.416-153.6 67.883-173.397 18.133-47.957 71.296-48 71.296-48zM557.995 256h272.085v483.413h-109.781l-93.184 58.581-17.109-58.581h-52.011zM614.016 308.011v378.027h26.581l11.221 39.979 62.080-40.021h62.123v-378.027z" /></g></svg>